<?xml version="1.0" encoding="utf-8" standalone="no"?>
<!DOCTYPE svg PUBLIC "-//W3C//DTD SVG 1.1//EN"
  "http://www.w3.org/Graphics/SVG/1.1/DTD/svg11.dtd">
<!-- Created with matplotlib (http://matplotlib.org/) -->
<svg height="896pt" version="1.1" viewBox="0 0 860 896" width="860pt" xmlns="http://www.w3.org/2000/svg" xmlns:xlink="http://www.w3.org/1999/xlink">
 <defs>
  <style type="text/css">
*{stroke-linecap:butt;stroke-linejoin:round;}
  </style>
 </defs>
 <g id="figure_1">
  <g id="patch_1">
   <path d="
M0 896.4
L860.4 896.4
L860.4 0
L0 0
z
" style="fill:#ffffff;"/>
  </g>
  <g id="axes_1">
   <g id="patch_2">
    <path d="
M107.55 806.76
L774.36 806.76
L774.36 89.64
L107.55 89.64
z
" style="fill:#ffffff;"/>
   </g>
   <g id="line2d_1">
    <path clip-path="url(#p6b89b7f788)" d="
M232.41 358.024
L232.536 350.274
L232.577 350.269
L232.953 350.13
L233.161 350.649
L233.578 349.043
L233.91 350.08
L234.077 350.165
L234.244 350.27
L234.411 350.711
L234.828 350.472
L235.077 350.108
L235.411 350.057
L235.453 350.039
L235.661 351.047
L235.744 350.953
L235.911 350.73
L236.078 350.396
L236.287 351.013
L236.744 350.611
L236.912 350.545
L237.245 351.091
L237.328 351.131
L237.537 350.294
L237.578 350.384
L237.745 350.712
L237.954 350.465
L238.162 350.723
L238.37 351.628
L238.411 351.461
L238.579 350.812
L238.787 351.173
L239.078 350.832
L239.245 350.826
L239.412 350.921
L239.912 350.888
L240.037 351.036
L240.078 350.98
L240.246 350.757
L240.454 351.041
L240.663 350.867
L240.871 350.223
L240.912 350.241
L241.079 350.315
L241.288 350.694
L241.496 349.981
L241.746 350.826
L241.913 350.822
L242.33 349.522
L242.538 350.668
L242.579 350.654
L242.746 350.599
L242.955 350.768
L243.371 350.199
L243.413 350.267
L243.58 350.548
L243.913 350.316
L244.079 350.357
L244.246 350.42
L244.622 350.186
L245.038 349.616
L245.247 349.786
L245.455 350.169
L245.664 350.091
L245.872 349.678
L246.08 350.551
L246.289 350.036
L246.58 350.855
L246.705 350.833
L246.914 350.026
L247.122 350.439
L247.539 349.537
L247.747 350.559
L248.164 349.911
L248.373 350.596
L248.414 350.553
L248.581 350.384
L248.789 349.346
L248.998 350.177
L249.206 349.479
L249.247 349.574
L249.414 349.971
L249.623 349.836
L249.831 348.902
L249.914 348.955
L250.248 349.188
L250.747 350.135
L251.081 351.23
L251.29 351.386
L251.581 349.983
L251.748 349.635
L251.915 349.601
L252.123 348.772
L252.414 349.293
L252.581 349.445
L252.915 350.434
L252.957 350.599
L253.165 350.066
L253.248 350.151
L253.374 350.281
L253.415 350.21
L253.748 349.829
L253.79 349.805
L254.207 351.115
L254.415 350.064
L254.624 350.878
L254.832 350.039
L255.041 350.896
L255.082 350.823
L255.249 350.529
L255.457 350.981
L255.666 350.251
L255.915 350.769
L256.082 351.28
L256.291 351.345
L256.708 350.164
L257.124 349.967
L257.333 350.715
L257.582 350.256
L257.75 350.274
L258.166 351.09
L258.375 350.06
L258.416 350.125
L258.583 350.399
L258.916 350.15
L259 350.139
L259.208 349.747
L259.249 349.841
L259.417 350.234
L259.625 350.007
L259.833 350.709
L260.042 349.817
L260.083 349.93
L260.25 350.409
L260.458 349.285
L260.667 349.972
L260.916 349.53
L261.084 349.562
L261.292 349.873
L261.583 349.107
L261.709 348.945
L261.917 349.817
L262.25 349.393
L262.334 349.232
L262.583 349.487
L263.083 349.441
L263.417 349.778
L263.792 349.499
L264.001 349.971
L264.25 349.265
L264.418 349.355
L264.626 349.738
L264.834 349.414
L265.084 349.932
L265.251 349.991
L265.46 349.646
L265.751 350.351
L265.876 350.78
L265.917 350.736
L266.085 350.564
L266.293 349.941
L266.501 350.804
L266.71 350.391
L266.751 350.491
L266.918 350.904
L267.127 351.043
L267.335 350.315
L267.584 351.375
L267.752 351.371
L268.251 352.076
L268.377 352.145
L268.585 351.377
L268.794 351.798
L269.002 351.314
L269.21 352.608
L269.251 352.509
L269.419 352.122
L269.918 352.204
L270.085 352.215
L270.418 352.64
L270.461 352.669
L270.669 353.38
L270.877 352.971
L270.918 353.032
L271.086 353.078
L271.502 353.623
L271.919 352.996
L272.128 352.773
L272.336 353.03
L272.544 352.271
L272.585 352.437
L272.753 353.157
L272.961 353.033
L273.252 351.787
L273.419 351.745
L274.003 351.994
L274.211 351.392
L274.253 351.504
L274.42 352.007
L274.919 351.419
L275.086 351.403
L275.253 351.248
L275.462 352.071
L275.753 350.912
L275.92 350.733
L276.295 350.882
L276.504 350.555
L276.92 351.089
L277.253 351.628
L277.337 351.678
L277.587 350.574
L277.754 350.579
L277.962 351.053
L278.171 350.604
L278.379 349.398
L278.42 349.607
L278.587 350.514
L278.796 350.082
L279.087 350.621
L279.212 350.722
L279.254 350.646
L279.421 350.341
L279.629 350.456
L279.838 350.832
L279.92 350.761
L280.087 350.694
L280.42 350.888
L280.671 350.844
L281.088 350.785
L281.421 351.522
L281.505 351.559
L281.754 350.754
L281.921 350.639
L282.254 351.217
L282.338 351.431
L282.588 351.045
L282.755 350.556
L282.963 351.089
L283.172 350.383
L283.38 350.85
L283.421 350.701
L283.588 350.123
L283.921 350.87
L284.255 350.879
L284.588 350.585
L284.839 350.382
L285.047 351.155
L285.088 351.052
L285.255 350.646
L285.464 350.848
L285.672 350.088
L285.755 350.162
L286.255 350.486
L286.422 350.602
L286.506 350.681
L286.714 349.627
L286.755 349.706
L286.922 350.038
L287.131 349.998
L287.339 349.564
L287.589 350.09
L287.756 350.226
L287.964 350.592
L288.173 350.559
L288.422 350.092
L289.089 349.716
L289.215 349.536
L289.256 349.654
L289.423 350.153
L289.84 349.367
L290.048 349.87
L290.089 349.785
L290.257 349.448
L290.923 349.493
L291.298 349.042
L291.507 349.999
L291.756 349.097
L291.924 348.974
L292.132 349.966
L292.757 349.473
L293.174 349.209
L293.382 349.632
L293.423 349.61
L293.591 349.521
L293.799 349.618
L294.09 348.926
L294.257 348.971
L295.09 349.587
L295.258 349.504
L295.466 349.718
L295.674 348.994
L295.883 349.307
L296.091 348.598
L296.716 349.511
L296.757 349.383
L297.133 348.505
L297.341 348.64
L297.55 349.295
L297.591 349.25
L297.758 349.076
L297.967 349.41
L298.592 349.059
L299.425 349.099
L299.758 348.645
L299.842 348.478
L300.05 349.276
L300.091 349.229
L300.591 348.813
L300.884 348.68
L301.092 348.999
L301.301 348.812
L301.509 349.126
L301.717 348.724
L301.926 349.838
L302.134 349.587
L302.342 350.317
L302.551 349.436
L302.592 349.523
L302.759 349.884
L302.968 349.483
L303.176 349.756
L303.425 349.109
L303.801 348.727
L304.259 348.821
L304.426 348.561
L304.635 349.692
L305.26 349.192
L305.468 348.244
L305.759 348.86
L305.926 348.852
L306.093 348.752
L306.426 349.509
L306.593 349.513
L306.759 349.432
L306.927 349.486
L307.135 348.971
L307.344 349.498
L307.552 348.559
L307.593 348.658
L307.969 349.394
L308.26 349.658
L308.385 349.864
L308.427 349.806
L308.594 349.575
L308.802 349.812
L309.093 349.46
L309.26 349.405
L309.636 349.007
L309.927 349.433
L310.052 349.701
L310.094 349.58
L310.261 349.107
L310.469 349.462
L310.76 349.304
L310.927 349.372
L311.094 349.258
L311.303 348.829
L311.511 349.144
L311.719 348.849
L311.761 348.881
L312.094 349.28
L312.136 349.35
L312.553 349.023
L312.594 349.134
L312.761 349.604
L312.97 349.478
L313.261 348.558
L313.428 348.54
L313.595 348.707
L314.012 348.681
L314.22 349.065
L314.261 348.967
L314.428 348.577
L314.637 348.472
L314.845 348.115
L315.054 349.053
L315.095 348.873
L315.262 348.175
L315.47 348.695
L315.887 347.907
L316.095 349.252
L316.304 347.733
L316.721 348.256
L316.929 348.29
L317.137 348.06
L317.428 348.2
L317.762 348.082
L318.095 348.108
L318.179 348.151
L318.596 347.688
L318.929 347.866
L319.013 347.847
L319.429 348.535
L319.638 347.881
L319.846 348.178
L320.055 347.586
L320.096 347.662
L320.263 347.98
L320.471 347.567
L320.888 347.902
L321.096 347.766
L321.305 347.943
L321.722 347.833
L322.138 348.413
L322.347 347.625
L322.43 347.707
L322.555 347.833
L322.596 347.779
L322.763 347.563
L323.096 347.839
L323.389 347.809
L323.597 347.352
L323.805 347.898
L324.014 347.592
L324.263 347.789
L324.431 347.757
L324.639 347.529
L324.847 347.889
L325.056 347.515
L325.097 347.546
L325.472 347.974
L325.889 347.15
L325.93 347.27
L326.098 347.776
L326.306 347.437
L326.514 347.709
L326.764 347.276
L326.931 347.154
L327.139 347.636
L327.556 347.232
L327.597 347.289
L327.765 347.523
L327.973 347.45
L328.264 347.734
L328.39 347.775
L328.598 348.556
L329.015 347.904
L329.223 347.828
L329.432 347.127
L329.848 347.328
L330.057 346.684
L330.098 346.714
L330.682 347.262
L330.89 346.739
L330.931 346.813
L331.099 346.505
L331.598 344.502
L331.765 344.049
L331.932 343.973
L332.141 343.586
L332.598 341.843
L333.182 340.805
L333.432 340.64
L333.808 339.73
L334.016 339.883
L334.265 339.011
L334.433 338.804
L334.766 338.919
L334.849 338.895
L335.266 337.785
L335.683 336.75
L335.891 337.203
L335.932 337.105
L336.1 336.714
L336.308 337.178
L336.766 336.788
L336.933 335.852
L337.142 335.706
L337.35 335.101
L337.433 335.138
L337.599 335.157
L337.975 327.19
L338.766 320.57
L339.434 317.494
L340.1 314.99
L340.267 315.047
L340.684 313.079
L340.767 313.122
L340.892 313.212
L341.101 312.493
L341.309 312.318
L341.6 311.644
L341.767 311.419
L342.601 309.624
L342.976 309.323
L343.185 308.406
L343.393 308.784
L343.434 308.709
L344.101 307.543
L344.226 307.574
L344.268 307.418
L344.643 305.356
L345.477 302.229
L345.685 302.197
L345.935 301.429
L346.102 300.56
L346.435 300.043
L347.769 297.021
L348.394 294.453
L348.602 294.037
L348.811 294.506
L349.436 291.434
L349.644 291.076
L349.853 289.966
L349.935 290.003
L350.061 290.089
L350.269 289.286
L350.478 289.026
L350.769 287.962
L350.936 287.699
L351.103 286.945
L351.311 286.984
L351.602 285.35
L352.103 284.546
L352.269 284.493
L352.353 284.49
L352.769 282.77
L353.436 281.096
L353.603 281.101
L354.103 280.145
L354.27 279.766
L354.437 279.672
L354.77 278.378
L354.937 278.189
L355.103 278.003
L355.479 277.206
L355.937 276.793
L356.312 276.202
L356.437 276.328
L356.604 276.36
L356.938 276.063
L357.146 275.495
L357.354 275.61
L357.771 274.845
L357.979 274.746
L358.271 274.201
L358.437 274.022
L358.937 273.165
L359.104 273.11
L359.271 273.041
L359.438 273.019
L360.063 271.38
L360.272 271.536
L360.48 271.446
L360.938 269.957
L361.438 269.765
L361.522 269.796
L361.771 269.156
L362.147 269.074
L362.355 269.331
L362.772 267.708
L362.98 268.113
L363.189 267.645
L363.397 268.026
L363.438 267.975
L363.772 267.396
L363.938 267.23
L364.105 267.06
L364.272 266.861
L364.648 266.665
L364.856 266.23
L365.064 266.742
L365.105 266.658
L365.481 265.866
L365.689 266.37
L365.772 266.283
L365.939 266.007
L366.106 265.418
L366.523 265.645
L366.94 265.031
L367.148 265.501
L367.356 265.038
L367.606 265.257
L367.939 265.277
L367.982 265.294
L368.398 264.225
L368.439 264.282
L368.607 264.522
L369.023 264.099
L369.232 264.451
L369.273 264.418
L369.44 264.285
L369.649 263.761
L369.94 264.418
L370.065 264.527
L370.274 263.126
L370.773 263.567
L370.899 263.85
L370.94 263.806
L371.107 263.652
L371.316 263.045
L371.524 263.234
L371.732 262.894
L371.773 262.937
L372.149 263.249
L372.607 263.039
L372.774 263.089
L372.983 262.616
L373.191 263.24
L373.399 262.886
L373.44 262.943
L373.608 263.178
L373.941 263.003
L374.025 262.998
L374.233 263.285
L374.274 263.245
L374.441 263.055
L374.65 262.517
L374.858 262.854
L374.941 262.787
L375.275 262.415
L375.608 262.657
L375.9 262.538
L376.317 261.954
L376.608 262.476
L376.775 262.419
L377.15 262.147
L377.359 262.215
L377.567 262.612
L377.608 262.501
L377.984 261.253
L378.192 261.77
L378.275 261.734
L378.442 261.615
L378.775 260.897
L378.817 260.784
L379.026 261.175
L379.108 261.12
L379.234 261.038
L379.275 261.133
L379.442 261.565
L380.067 260.745
L380.276 261.23
L380.484 261.135
L380.693 260.624
L380.901 261.314
L380.942 261.175
L381.276 260.434
L381.318 260.384
L382.151 260.916
L382.442 260.309
L382.568 260.225
L382.609 260.306
L382.985 261.007
L383.276 260.369
L383.443 260.439
L383.61 260.619
L383.943 260.346
L384.109 260.438
L384.276 260.585
L384.443 260.563
L384.652 259.623
L384.86 260.879
L384.943 260.744
L385.443 260.121
L385.694 260.107
L385.902 260.276
L385.943 260.194
L386.11 259.86
L386.319 259.868
L386.527 259.236
L386.736 260.198
L386.777 260.18
L386.944 260.105
L387.152 260.351
L387.569 259.575
L387.61 259.705
L387.777 260.293
L387.986 260.082
L388.444 260.1
L388.611 259.854
L388.944 259.993
L389.111 259.992
L389.277 259.925
L389.444 260.11
L389.653 259.578
L389.944 259.908
L390.278 259.89
L390.486 259.822
L390.778 260.252
L391.112 260.423
L391.32 260.113
L391.611 260.361
L391.778 260.334
L392.362 260.549
L392.779 259.884
L392.987 259.665
L393.278 260.295
L393.445 260.205
L393.612 259.89
L393.82 260.048
L394.029 259.924
L394.237 260.686
L394.278 260.572
L394.446 260.104
L394.862 259.897
L395.112 260.079
L395.487 259.842
L395.904 260.14
L396.113 259.887
L396.321 259.398
L397.279 259.579
L397.446 259.628
L397.612 259.437
L397.78 259.065
L397.988 259.694
L398.405 258.547
L398.446 258.66
L398.613 259.136
L398.822 258.961
L399.03 259.488
L399.279 258.928
L399.447 258.891
L399.655 259.208
L399.863 258.881
L400.113 259.284
L400.613 259.21
L400.78 258.967
L400.905 258.71
L400.946 258.81
L401.114 259.23
L401.447 259.151
L401.613 259.153
L401.947 259.333
L402.156 259.836
L402.447 259.189
L402.781 259.321
L402.989 259.593
L403.197 259.501
L403.406 258.957
L403.447 258.989
L403.823 259.415
L404.239 259.96
L404.947 259.222
L405.114 259.181
L405.49 259.409
L405.698 259.062
L405.781 259.123
L405.947 259.184
L406.115 259.034
L406.323 258.477
L406.948 259.302
L407.573 258.455
L407.782 258.368
L408.115 258.869
L408.199 258.911
L408.448 258.496
L408.824 258.442
L409.115 258.465
L409.282 258.434
L409.449 258.556
L409.657 258.96
L409.866 258.028
L410.282 258.876
L410.615 258.536
L410.782 258.442
L410.949 258.356
L411.324 258.653
L411.741 258.542
L411.949 258.736
L412.282 259.247
L412.449 259.23
L412.616 259.06
L412.783 258.747
L412.991 258.912
L413.2 258.779
L413.408 259.05
L413.449 259.018
L413.782 258.62
L413.949 258.484
L414.033 258.437
L414.241 258.845
L414.283 258.809
L414.45 258.661
L414.658 258.68
L414.867 258.969
L415.116 258.594
L415.283 258.157
L415.492 258.308
L415.909 258.241
L416.117 258.305
L416.325 258.1
L416.742 258.399
L416.783 258.306
L416.95 257.936
L417.159 258.238
L417.784 257.66
L418.117 257.885
L418.617 257.944
L419.034 257.564
L419.284 257.603
L419.451 257.939
L419.659 257.632
L419.868 258.045
L420.076 257.767
L420.117 257.845
L420.451 258.291
L420.493 258.322
L420.784 258.164
L421.118 258.282
L421.451 257.729
L421.743 257.75
L422.368 259.203
L422.577 260.531
L422.618 260.379
L422.785 259.789
L422.993 258.358
L423.285 258.999
L423.619 260.046
L424.035 257.932
L424.118 257.997
L424.618 258.258
L424.66 258.245
L424.869 258.601
L425.286 258.207
L425.494 258.436
L425.952 258.194
L426.327 258.451
L426.744 258.205
L427.285 258.422
L427.369 258.41
L427.619 258.06
L427.994 258.219
L428.203 258.494
L428.452 258.329
L428.62 258.496
L428.828 259.045
L429.119 258.594
L429.453 258.381
L429.786 258.804
L429.953 258.763
L430.078 258.696
L430.119 258.797
L430.287 259.223
L430.703 258.206
L430.953 258.358
L431.12 258.819
L431.329 258.436
L431.62 258.67
L432.787 258.616
L432.996 258.775
L433.453 258.326
L433.953 258.273
L434.037 258.194
L434.287 258.467
L434.62 258.39
L434.787 258.327
L435.12 258.181
L435.288 258.331
L435.704 257.966
L435.913 258.184
L435.954 258.128
L436.287 257.883
L436.33 257.872
L436.538 258.574
L436.746 257.923
L436.787 257.977
L437.163 258.362
L437.454 258.155
L437.621 258.273
L437.788 258.498
L438.121 258.32
L438.205 258.24
L438.413 258.784
L438.454 258.701
L438.622 258.373
L438.83 258.385
L439.038 258.605
L439.288 258.162
L439.955 258.363
L440.121 258.282
L440.497 258.518
L440.788 258.465
L440.955 258.522
L441.122 258.35
L441.331 258.87
L441.747 258.46
L441.956 258.701
L442.289 258.539
L442.455 258.303
L442.581 258.06
L442.622 258.138
L442.789 258.458
L443.206 258.119
L443.623 258.228
L443.831 258.602
L444.122 258.332
L444.248 258.379
L444.456 257.675
L444.665 258.207
L445.29 257.85
L445.707 258.273
L445.956 257.776
L446.123 257.785
L446.456 257.389
L446.54 257.248
L446.748 257.907
L446.79 257.838
L446.957 257.563
L447.165 258.056
L447.374 257.53
L447.79 257.997
L448.207 257.557
L448.624 258.069
L448.832 257.63
L449.123 257.873
L449.29 257.804
L449.666 257.303
L450.083 258.276
L450.291 257.89
L450.957 257.737
L451.124 258.152
L451.457 257.749
L451.624 257.546
L451.791 257.518
L452.166 257.925
L452.457 257.438
L452.624 257.487
L453 257.835
L453.291 257.811
L453.458 257.852
L453.625 257.813
L453.833 257.985
L454.042 257.373
L454.124 257.456
L454.458 257.754
L454.667 257.647
L454.875 258.245
L455.084 257.552
L455.125 257.601
L455.5 258.07
L455.792 257.912
L455.958 257.966
L456.125 258.2
L456.458 257.902
L456.625 257.833
L456.751 257.9
L456.792 257.82
L456.959 257.5
L457.584 258.426
L457.793 258.116
L458.001 258.057
L458.209 258.487
L458.626 257.493
L458.834 258.012
L459.043 257.773
L459.292 258.327
L459.876 258.492
L460.085 257.874
L460.126 257.929
L460.293 258.16
L460.501 257.946
L460.71 258.421
L460.918 257.933
L460.959 258.03
L461.335 258.882
L461.543 258.206
L461.626 258.256
L461.793 258.393
L461.96 258.644
L462.168 257.758
L462.377 258.387
L462.585 257.682
L462.626 257.716
L463.002 258.011
L463.293 257.733
L463.46 257.702
L463.627 257.755
L463.835 258.293
L464.044 257.976
L464.252 258.328
L464.461 257.506
L464.669 257.6
L464.96 258.053
L465.127 257.978
L465.294 257.588
L465.503 257.463
L465.711 258.067
L465.96 257.533
L466.336 257.628
L466.544 258.257
L466.794 257.571
L467.127 257.413
L467.461 257.383
L467.627 257.48
L467.795 257.376
L468.003 257.955
L468.461 257.378
L468.628 257.363
L468.837 257.634
L469.128 257.329
L469.294 257.378
L469.67 257.708
L469.878 257.958
L470.087 257.659
L470.128 257.737
L470.295 258.061
L470.504 257.819
L470.795 257.881
L470.961 257.795
L471.129 257.535
L471.337 258.075
L471.545 257.616
L471.962 257.938
L472.379 258.187
L472.587 257.666
L472.628 257.717
L472.796 257.931
L473.004 257.926
L473.213 258.201
L473.462 257.76
L473.629 257.658
L474.046 257.84
L474.254 257.495
L474.296 257.56
L474.463 257.811
L474.962 257.373
L475.296 257.531
L475.796 257.655
L475.921 257.522
L475.963 257.577
L476.13 257.816
L476.338 257.365
L476.547 257.456
L476.755 257.014
L476.796 257.087
L476.963 257.389
L477.38 257.224
L477.63 257.538
L477.797 257.534
L478.13 257.367
L478.214 257.361
L478.422 257.743
L478.463 257.621
L478.63 257.142
L478.963 257.304
L479.13 257.218
L479.255 257.108
L479.464 257.715
L479.797 257.507
L479.963 257.202
L480.089 256.894
L480.13 257.03
L480.297 257.606
L480.714 257.008
L480.922 257.638
L480.964 257.576
L481.339 257.187
L481.548 257.672
L481.797 257.44
L481.964 257.498
L482.173 257.377
L482.381 257.599
L482.59 257.232
L482.631 257.296
L482.798 257.544
L483.006 257.286
L483.297 257.597
L483.84 257.305
L484.048 257.809
L484.257 257.194
L484.298 257.223
L484.465 257.352
L484.673 257.233
L484.882 257.374
L485.09 256.874
L485.131 256.984
L485.298 257.446
L485.507 257.104
L485.924 257.572
L486.132 257.267
L486.34 257.8
L486.549 257.147
L486.757 257.557
L486.798 257.52
L486.965 257.373
L487.632 257.613
L487.799 257.397
L488.132 257.76
L488.299 257.875
L488.424 258.042
L488.465 257.926
L488.632 257.472
L488.841 257.694
L489.132 257.704
L489.258 257.802
L489.299 257.696
L489.466 257.306
L489.674 257.21
L490.091 258.012
L490.132 257.914
L490.3 257.529
L490.716 257.699
L490.925 256.915
L490.966 257.11
L491.133 257.944
L491.466 257.757
L491.633 257.83
L491.967 258.087
L492.175 257.634
L492.8 258.302
L493.008 258.237
L493.217 257.726
L493.634 258.209
L493.842 257.858
L494.259 258.46
L494.467 258.112
L494.967 258.13
L495.133 258.046
L495.301 257.889
L495.509 258.15
L495.8 257.994
L495.967 258.031
L496.134 258.179
L496.467 257.987
L496.8 258.025
L496.968 258.357
L497.384 257.189
L498.01 257.956
L498.218 257.389
L498.426 257.9
L498.467 257.808
L498.635 257.443
L498.843 257.34
L499.134 257.568
L499.677 257.463
L499.885 257.024
L500.134 257.246
L500.302 257.133
L500.51 257.716
L500.801 257.007
L500.968 257.045
L501.135 257.432
L501.344 256.923
L501.76 257.692
L501.801 257.616
L502.135 257.231
L502.385 257.038
L502.594 256.517
L502.635 256.628
L502.802 257.113
L503.219 257.291
L503.427 256.992
L503.468 257.118
L503.636 257.649
L503.844 257.307
L504.135 257.423
L504.261 257.563
L504.302 257.512
L504.469 257.279
L504.678 257.517
L504.969 257.145
L505.303 257.149
L505.511 257.395
L505.802 257.353
L505.969 257.37
L506.136 257.263
L506.345 256.722
L506.761 257.452
L507.178 256.919
L507.387 257.315
L507.636 257.047
L507.803 256.989
L508.012 257.175
L508.303 257.018
L508.47 256.891
L508.637 256.921
L508.845 257.444
L509.054 257.119
L509.262 257.547
L509.303 257.486
L509.47 257.242
L509.679 257.432
L510.095 257.119
L510.304 257.664
L510.637 257.056
L510.97 256.955
L511.303 257.181
L511.554 257.505
L511.637 257.422
L511.804 257.215
L511.971 256.889
L512.179 257.149
L512.388 256.976
L513.013 257.775
L513.304 257.203
L513.471 257.125
L513.638 257.127
L513.971 257.411
L514.055 257.434
L514.304 257.831
L514.471 257.736
L514.971 257.066
L515.138 257.132
L515.305 257.56
L515.971 257.403
L516.138 257.868
L516.347 257.341
L516.555 257.824
L516.638 257.756
L516.805 257.568
L516.972 257.23
L517.305 257.656
L517.389 257.815
L517.805 257.297
L518.305 257.424
L518.472 257.303
L518.639 257.277
L518.847 257.62
L519.264 257.331
L519.472 257.176
L519.805 257.585
L519.889 257.615
L520.098 257.11
L520.139 257.15
L520.306 257.315
L520.805 256.968
L520.972 257.014
L521.139 256.856
L521.556 257.428
L521.973 257.099
L522.306 257.374
L522.39 257.49
L522.639 257.075
L522.806 257.164
L523.223 257.61
L523.432 257.222
L523.473 257.302
L523.848 257.848
L524.265 257.091
L524.306 257.153
L524.64 257.485
L525.14 257.705
L525.307 257.887
L525.515 257.669
L525.724 258.195
L525.973 257.839
L526.557 257.841
L526.807 257.927
L526.974 258.335
L527.474 257.941
L527.808 257.645
L528.016 258.15
L528.433 257.688
L528.474 257.758
L528.641 258.05
L528.974 258.15
L529.058 258.208
L529.266 257.702
L529.307 257.817
L529.475 258.294
L529.683 257.61
L529.891 258.036
L529.974 257.984
L530.308 257.799
L530.516 257.861
L530.808 257.617
L530.974 257.584
L531.142 257.472
L531.35 257.019
L531.558 257.366
L531.808 256.99
L531.975 256.915
L532.184 256.386
L532.475 256.489
L532.6 256.433
L532.809 255.275
L533.017 255.163
L533.308 254.629
L533.475 254.508
L533.642 254.302
L534.142 254.686
L534.308 254.857
L534.892 256.281
L535.309 255.009
L535.975 254.932
L536.351 255.26
L536.809 256.179
L537.142 256.587
L537.185 256.613
L537.393 256.51
L537.601 257.195
L537.642 257.171
L537.81 257.053
L538.018 257.157
L538.435 256.876
L538.643 257.512
L539.06 257.523
L539.268 256.905
L539.309 256.939
L539.685 257.153
L539.894 256.933
L540.143 257.261
L540.31 257.647
L540.81 257.67
L540.977 257.578
L541.352 257.075
L541.81 257.299
L541.977 257.027
L542.186 257.695
L542.394 256.913
L542.477 257.017
L542.644 257.159
L542.811 257.105
L543.144 257.45
L543.228 257.456
L543.477 257.103
L543.644 257.111
L544.061 257.61
L544.269 257.223
L544.311 257.283
L544.644 257.622
L544.686 257.644
L544.895 257.191
L545.103 257.782
L545.144 257.67
L545.311 257.232
L545.52 257.39
L545.811 257.171
L545.978 257.21
L546.311 257.081
L546.353 257.078
L546.644 257.521
L546.978 257.327
L547.311 257.149
L547.478 257.287
L547.603 257.478
L547.645 257.447
L548.145 257.27
L548.311 257.441
L548.437 257.65
L548.478 257.579
L548.645 257.296
L548.854 257.379
L549.062 257.156
L549.312 257.556
L549.479 257.623
L549.687 257.908
L549.978 257.167
L550.145 257.079
L550.729 257.517
L550.938 257.119
L550.979 257.167
L551.146 257.365
L551.354 257.113
L551.563 257.448
L551.812 256.906
L551.979 256.921
L552.188 257.094
L552.396 256.659
L552.605 257.082
L552.646 257.062
L552.813 256.971
L553.021 257.064
L553.479 256.591
L553.646 256.486
L553.979 257.19
L554.063 257.224
L554.313 256.897
L554.48 256.915
L554.688 257.112
L555.105 256.677
L555.313 257.283
L555.522 256.908
L555.813 257.253
L555.98 257.228
L556.48 257.01
L556.772 257.203
L556.981 256.858
L557.189 257.431
L557.48 257.425
L557.647 257.465
L558.022 257.2
L558.314 257.718
L558.856 257.499
L559.064 257.217
L559.314 257.536
L560.315 257.387
L560.523 257.746
L560.814 257.474
L560.981 257.539
L561.148 257.868
L561.356 257.274
L561.814 257.806
L561.982 257.811
L562.19 257.975
L562.398 257.811
L562.648 257.201
L562.815 257.2
L563.148 257.612
L563.315 257.582
L563.481 257.547
L563.981 257.745
L564.148 257.764
L564.315 257.777
L564.482 258.01
L564.691 257.507
L565.107 257.977
L565.316 257.423
L565.524 257.646
L565.815 257.573
L565.982 257.586
L566.149 257.357
L566.358 257.592
L566.566 257.189
L566.774 257.597
L566.815 257.56
L566.983 257.409
L567.399 257.858
L567.482 257.774
L567.608 257.648
L567.649 257.691
L567.816 257.886
L568.233 257.151
L568.482 257.423
L568.65 257.741
L568.858 257.327
L569.066 257.801
L569.275 257.241
L569.316 257.261
L569.692 257.353
L569.9 257.333
L570.149 257.872
L570.317 257.874
L570.65 257.664
L570.983 257.564
L571.15 257.3
L571.65 257.468
L571.816 257.602
L572.192 257.438
L572.817 257.925
L573.026 257.441
L573.483 257.578
L573.651 257.423
L573.984 257.827
L574.276 257.812
L574.984 257.566
L575.109 257.391
L575.151 257.455
L575.484 257.791
L575.526 257.81
L575.817 257.554
L575.943 257.373
L575.984 257.477
L576.151 257.943
L576.484 257.792
L577.151 257.688
L577.402 257.512
L577.61 258.08
L577.651 258.023
L578.027 257.532
L578.235 257.495
L578.485 258.002
L578.652 257.957
L578.86 257.679
L579.151 258.044
L579.318 258.032
L579.485 257.944
L579.694 257.663
L579.985 257.827
L580.152 257.992
L580.319 257.952
L580.527 257.65
L580.736 257.969
L580.818 257.894
L580.944 257.782
L580.985 257.843
L581.152 258.097
L581.361 258.032
L581.569 258.196
L581.819 257.868
L581.986 257.882
L582.194 257.609
L582.485 257.84
L582.611 258.01
L582.652 257.888
L582.819 257.394
L583.028 258.05
L583.319 257.812
L583.486 257.855
L583.653 258.044
L583.986 257.868
L584.152 258
L584.278 258.17
L584.319 258.067
L584.486 257.669
L584.986 257.924
L585.112 257.76
L585.153 257.813
L585.32 258.03
L585.528 257.783
L585.737 257.981
L585.986 257.558
L586.153 257.516
L586.57 258.049
L586.82 257.815
L586.987 257.936
L587.195 258.334
L587.404 258.053
L587.612 258.605
L587.82 257.548
L588.029 258.037
L588.237 257.931
L588.446 258.523
L588.487 258.501
L588.654 258.412
L588.987 257.957
L589.279 257.969
L589.82 258.054
L589.904 258.078
L590.113 257.734
L590.154 257.797
L590.321 258.056
L590.529 258.118
L590.738 257.683
L590.987 258.057
L591.155 258.431
L591.363 258.102
L591.571 258.225
L591.988 257.79
L592.196 258.205
L592.488 258.108
L592.654 258.12
L592.822 257.988
L593.03 258.457
L593.321 258.109
L593.488 258.119
L593.655 257.99
L593.988 258.376
L594.072 258.407
L594.28 258.074
L594.321 258.189
L594.489 258.663
L594.697 257.886
L594.905 258.28
L594.988 258.208
L595.322 258.041
L595.739 257.922
L596.364 258.483
L596.655 257.992
L596.822 257.847
L596.989 257.569
L597.197 258.128
L597.406 257.656
L597.614 258.143
L597.655 258.1
L597.989 257.9
L598.322 257.856
L598.489 257.936
L598.656 257.804
L598.865 257.901
L599.073 257.786
L599.49 258.105
L599.698 258.029
L599.906 258.454
L600.115 257.971
L600.156 258.048
L600.323 258.371
L600.532 258.275
L600.948 258.824
L600.989 258.79
L601.157 258.662
L601.365 258.711
L601.573 258.265
L601.782 258.645
L601.823 258.583
L601.99 258.334
L602.323 258.702
L602.824 258.932
L603.24 258.673
L603.49 258.714
L603.657 258.543
L603.866 258.67
L604.074 259.342
L604.282 258.554
L604.323 258.567
L604.491 258.633
L604.699 258.48
L604.99 259.252
L605.324 259.454
L605.533 259.041
L605.949 259.717
L606.158 259.319
L606.366 259.853
L606.575 259.633
L606.783 260.057
L606.824 260.034
L606.991 259.946
L607.2 260.037
L607.491 259.947
L607.658 260.018
L608.45 260.928
L608.491 260.883
L608.658 260.711
L609.158 261.68
L609.283 261.991
L609.325 261.966
L609.492 261.929
L609.7 262.059
L609.909 263.027
L609.991 262.953
L610.158 262.899
L610.325 263.092
L610.95 264.51
L610.992 264.452
L611.159 264.18
L611.658 265.544
L613.243 268.013
L613.451 268.935
L613.492 268.896
L613.659 268.759
L613.992 269.594
L614.284 270.095
L614.493 270.628
L614.826 270.656
L614.91 270.63
L615.326 271.306
L615.659 271.783
L615.826 272.238
L615.993 272.666
L616.16 272.649
L616.577 273.523
L616.785 273.349
L616.993 274.302
L617.202 274.076
L618.035 276.854
L618.244 276.824
L619.16 280.053
L619.327 280.848
L619.494 280.937
L619.827 281.726
L619.993 282.115
L620.827 285.267
L621.327 287.087
L621.494 287.386
L621.578 287.505
L621.994 289.194
L623.245 293.602
L623.494 293.908
L624.703 297.793
L625.161 298.768
L625.537 300.05
L625.828 300.76
L626.162 301.695
L626.37 302.091
L626.579 301.889
L627.162 303.243
L627.204 303.259
L627.495 304.091
L627.662 304.742
L628.037 305.27
L628.246 305.086
L628.663 305.902
L628.871 305.983
L629.162 306.502
L629.496 307.148
L629.704 307.75
L629.913 307.756
L630.33 308.572
L630.538 308.789
L630.996 309.817
L631.163 310.059
L631.372 309.884
L631.58 310.558
L631.663 310.521
L631.829 310.506
L632.205 310.961
L632.663 311.803
L632.83 311.792
L633.163 312.191
L633.33 312.357
L633.83 312.621
L633.996 312.985
L634.163 313.253
L634.33 313.41
L635.163 314.689
L635.539 315.518
L635.747 315.504
L636.373 316.925
L636.581 317.771
L636.664 317.707
L636.789 317.631
L636.83 317.736
L637.831 320.046
L638.04 320.26
L638.248 321.083
L638.456 320.584
L638.497 320.658
L638.665 320.962
L638.873 320.703
L639.164 320.936
L639.331 321.331
L639.498 322.091
L639.707 321.917
L639.915 322.315
L639.998 322.269
L640.164 322.265
L640.54 322.699
L640.749 322.683
L640.998 323.613
L641.374 323.57
L641.665 324.214
L641.832 324.402
L642.332 325.249
L642.416 325.216
L642.665 325.767
L642.998 326.723
L643.165 326.797
L643.249 326.805
L643.499 327.718
L643.666 327.886
L644.083 328.897
L644.499 329.849
L644.708 329.697
L644.999 329.756
L645.166 329.762
L645.75 330.302
L645.958 330.062
L646.375 331.085
L646.666 330.596
L646.833 330.313
L647 330.37
L647.333 330.965
L647.499 331.14
L647.666 331.351
L647.833 331.308
L648.333 331.56
L648.5 331.578
L649 332.223
L649.166 332.26
L649.333 332.236
L649.5 332.449
L649.917 332.433
L650.334 333.179
L650.751 332.953
L651 333.694
L651.584 334.217
L651.834 334.05
L652.001 333.722
L652.667 334.79
L652.834 334.929
L653.043 334.523
L653.834 335.552
L653.876 335.542
L654.167 335.901
L654.501 336.679
L654.71 336.544
L655.168 336.964
L655.335 337.464
L655.543 337.425
L656.001 337.913
L656.168 338.327
L656.377 337.942
L656.668 338.66
L656.835 339.267
L657.002 339.454
L657.21 339.363
L657.627 340.067
L657.836 340.329
L658.044 340.262
L658.252 340.954
L658.335 340.915
L658.502 340.814
L658.669 340.641
L659.086 341.167
L659.335 341.267
L659.503 341.424
L659.711 341.224
L659.919 342.076
L660.002 341.97
L660.128 341.816
L660.169 341.858
L660.753 342.352
L661.002 342.382
L661.17 342.623
L661.378 342.368
L661.669 342.913
L661.836 343.136
L662.003 343.673
L662.211 343.384
L662.503 343.736
L662.628 344.036
L662.669 344.01
L662.837 343.91
L663.253 344.615
L663.336 344.556
L663.503 344.481
L663.67 344.518
L663.878 345.13
L664.712 345.263
L665.003 345.705
L665.17 345.62
L665.503 345.221
L665.546 345.2
L665.754 345.744
L665.837 345.643
L666.003 345.505
L666.171 345.556
L666.796 344.749
L667.213 345.739
L667.421 345.218
L667.504 345.258
L667.67 345.266
L668.046 344.937
L668.337 344.789
L668.463 344.657
L668.504 344.713
L668.671 344.95
L669.171 344.692
L669.296 344.492
L669.337 344.52
L669.505 344.635
L670.004 344.464
L670.13 344.304
L670.171 344.411
L670.338 344.863
L670.838 344.344
L671.004 344.397
L671.172 344.565
L671.38 344.458
L671.588 344.628
L672.005 344.249
L672.338 344.991
L672.505 345.057
L672.671 344.952
L672.839 344.682
L673.047 344.834
L673.256 344.352
L673.464 344.875
L673.505 344.855
L673.672 344.777
L674.089 344.953
L674.339 344.729
L674.506 344.749
L675.131 345.407
L675.172 345.344
L675.339 345.091
L675.839 345.378
L676.006 345.449
L676.173 345.815
L676.506 345.115
L676.59 345.029
L676.798 345.567
L676.839 345.499
L677.006 345.23
L677.423 345.773
L677.673 345.794
L677.84 345.741
L678.048 346.029
L678.257 345.656
L678.673 346.66
L679.006 346.097
L679.09 346.066
L679.298 346.827
L679.34 346.782
L679.715 346.424
L679.924 346.97
L680.006 346.901
L680.173 346.841
L680.34 347.011
L680.673 347.444
L680.84 347.386
L681.007 347.304
L681.174 347.394
L681.591 348.064
L681.84 348.134
L682.007 348.319
L682.216 348.186
L682.507 348.624
L683.007 348.843
L683.258 349.097
L683.34 348.99
L683.466 348.834
L683.507 348.885
L683.883 349.36
L684.091 349.29
L684.3 349.901
L684.341 349.842
L684.508 349.45
L684.716 349.506
L684.925 349.81
L685.007 349.752
L685.174 349.673
L685.341 349.706
L685.674 349.573
L686.008 349.608
L686.175 349.37
L686.383 349.34
L686.8 349.036
L687.175 349.408
L687.217 349.469
L687.508 349.303
L687.842 349.594
L688.05 349.012
L688.342 349.262
L688.508 349.115
L688.884 348.493
L689.342 349.17
L689.509 349.166
L689.717 348.657
L690.134 349.315
L691.009 348.552
L691.176 348.658
L691.384 348.983
L691.593 348.423
L691.801 348.814
L691.842 348.776
L692.01 348.626
L692.218 348.838
L692.426 348.553
L692.509 348.623
L692.676 348.81
L692.843 349.143
L693.176 348.8
L693.468 348.544
L693.885 348.711
L694.093 349.099
L694.176 349.052
L694.676 348.651
L695.135 348.138
L695.176 348.332
L695.344 349.172
L695.552 349.078
L695.843 348.714
L696.01 348.762
L696.177 348.958
L697.011 348.817
L697.219 349.105
L697.51 348.992
L697.677 348.939
L697.844 348.71
L698.053 349.133
L698.261 349.091
L698.678 349.482
L699.01 349.416
L699.094 349.442
L699.344 349.871
L699.677 349.951
L699.72 349.948
L700.177 350.521
L700.345 350.886
L700.844 350.569
L701.178 350.824
L701.678 351.367
L701.844 351.39
L702.012 351.236
L702.22 351.422
L702.637 352.592
L702.678 352.553
L703.054 352.232
L703.345 352.647
L703.511 352.632
L703.679 352.546
L704.178 353.464
L704.345 353.501
L704.512 353.613
L704.721 353.532
L704.929 353.96
L705.012 353.874
L705.346 353.415
L705.554 352.985
L706.012 353.493
L706.179 353.473
L706.596 353.193
L706.804 354.025
L706.845 353.994
L707.221 353.691
L707.43 353.007
L707.638 353.654
L707.679 353.623
L708.055 353.33
L708.263 354.289
L708.68 352.903
L708.888 352.905
L709.346 353.798
L709.722 354.24
L709.93 353.443
L710.347 354.045
L710.555 353.387
L710.764 353.396
L710.972 353.849
L711.013 353.803
L711.389 353.229
L711.597 353.404
L711.847 352.596
L712.014 352.453
L712.222 353.779
L712.431 352.534
L712.513 352.674
L712.68 353.166
L712.847 354.389
L713.264 351.512
L713.472 353.862
L713.514 353.647
L713.889 351.864
L714.306 352.944
L714.347 352.825
L714.514 352.351
L714.723 351.336
L715.014 352.379
L715.14 352.507
L715.348 351.26
L715.556 351.013
L715.765 352.414
L715.847 352.38
L715.973 352.33
L716.181 351.314
L716.39 351.034
L716.807 351.768
L717.015 350.909
L717.348 350.702
L717.432 350.698
L717.64 351.474
L717.681 351.319
L717.848 350.831
L718.057 350.748
L718.474 351.898
L718.89 351.181
L719.099 351.9
L719.307 351.438
L719.348 351.515
L719.515 351.837
L719.724 351.258
L720.141 351.318
L720.349 352.105
L720.557 352.255
L720.766 351.942
L720.974 352.49
L721.015 352.458
L721.182 352.329
L721.391 352.599
L721.682 351.988
L721.849 352.037
L722.516 352.973
L722.641 353.23
L722.682 353.206
L723.182 352.974
L723.516 353.07
L723.683 353.345
L723.891 353.303
L724.1 353.724
L724.308 353.474
L724.349 353.54
L724.725 354.231
L724.933 353.827
L725.016 353.886
L725.35 354.113
L725.558 353.695
L725.85 354.326
L726.016 354.527
L726.184 355.049
L726.392 354.091
L726.683 354.596
L726.809 354.646
L727.017 355.396
L727.225 354.621
L727.434 355.354
L727.642 355.021
L727.851 355.763
L728.059 355.42
L728.35 355.505
L728.476 355.412
L728.517 355.478
L728.684 355.75
L728.892 355.499
L729.35 356.071
L729.518 355.986
L729.726 356.339
L730.017 356.264
L730.351 356.579
L730.559 357.221
L730.768 356.916
L731.017 357.264
L731.185 357.037
L731.393 357.278
L731.684 356.896
L731.81 356.645
L731.851 356.716
L732.018 357.017
L732.227 356.59
L732.435 356.644
L732.684 356.216
L732.852 356.193
L733.06 356.397
L733.268 356.296
L733.477 355.775
L733.518 355.794
L733.894 355.877
L734.31 355.539
L734.351 355.595
L734.519 355.834
L734.727 355.304
L735.185 355.599
L735.352 355.515
L735.561 356.16
L735.852 355.397
L736.018 355.332
L736.186 355.036
L736.394 354.978
L736.602 354.445
L736.811 354.782
L736.852 354.741
L737.019 354.576
L737.352 354.844
L737.519 354.786
L737.685 354.681
L737.853 354.72
L738.061 354.325
L738.519 354.306
L738.895 354.192
L739.186 354.498
L739.311 354.703
L739.52 353.807
L739.728 354.12
L740.019 353.959
L740.145 353.828
L740.186 353.887
L740.353 354.135
L740.562 354.087
L740.77 354.353
L741.187 353.647
L741.395 354.06
L741.812 353.941
L742.02 353.315
L742.229 353.8
L742.645 353.565
L743.062 353.861
L743.479 353.133
L743.52 353.233
L743.687 353.654
L743.896 353.486
L744.104 353.782
L744.521 353.318
L745.02 353.763
L745.187 353.755
L745.354 353.627
L745.979 354.962
L746.188 354.698
L746.605 354.878
L746.854 355.45
L747.021 355.433
L747.23 355.263
L747.855 355.955
L748.063 355.612
L748.272 356.525
L748.354 356.437
L748.48 356.31
L748.521 356.371
L748.688 356.62
L748.897 356.509
L749.314 357.113
L749.522 356.888
L749.73 356.983
L750.021 357.707
L750.355 358.492
L750.564 358.06
L750.772 358.633
L750.981 358.282
L751.189 358.982
L751.397 358.608
L751.688 358.618
L751.814 358.522
L751.855 358.596
L752.189 359
L752.439 359.059
L752.856 358.793
L753.064 359.092
L753.273 358.852
L753.856 359.622
L754.022 359.657
L754.106 359.691
L754.356 359.437
L754.731 359.608
L754.94 359.651
L755.148 360.066
L755.189 360.004
L755.565 359.568
L755.773 360.321
L755.856 360.236
L756.023 360.008
L756.398 359.183
L756.856 360.202
L757.232 360.164
L757.69 360.385
L757.857 360.188
L758.065 360.62
L758.357 360.115
L758.523 360.004
L758.691 359.674
L759.19 359.978
L759.524 360.452
L759.857 359.806
L760.19 359.522
L760.358 359.641
L760.566 359.548
L760.774 360.015
L761.191 359.431
L762.025 358.97
L762.441 359.431
L762.65 358.925
L762.691 359.01
L762.858 359.367
L763.191 358.618
L763.275 358.362
L763.524 358.763
L763.692 358.706
L763.9 359.122
L764.191 358.752
L764.525 358.655
L764.734 358.901
L764.942 358.729
L765.15 358.993
L765.191 358.958
L765.525 358.799
L765.691 358.694
L766.025 358.385
L766.358 358.596
L766.401 358.602
L766.817 358.145
L767.026 358.697
L767.234 358.584
L767.442 358.872
L767.651 358.3
L767.692 358.364
L767.859 358.627
L768.068 358.672
L768.484 357.777
L768.693 358.282
L768.901 358.024
L769.318 358.811
L769.526 358.213
L770.151 358.367
L770.36 358.581
L770.859 358.266
L771.026 358.18
L771.193 358.293
L771.402 358.189
L771.693 358.581
L771.859 358.581
L772.36 358.217
L772.652 358.523
L772.693 358.456
L773.069 357.962
L773.36 358.453
L773.526 358.826
L773.694 358.783
L774.319 359.224
L774.36 359.114
L774.527 358.69
L774.527 358.69" style="fill:none;stroke:#000000;stroke-linecap:square;"/>
   </g>
   <g id="line2d_2">
    <path clip-path="url(#p6b89b7f788)" d="
M107.383 209.882
L107.831 209.73
L109.717 209.053
L115.052 207.89
L119.219 207.485
L120.886 207.667
L121.553 207.968
L121.886 208.24
L122.499 208.917
L123.22 210.27
L123.72 211.658
L124.387 213.734
L124.791 213.982
L126.387 209.222
L127.082 207.955
L127.999 206.909
L128.916 206.355
L130.888 205.519
L132.389 205.174
L135.389 204.732
L141.057 204.051
L145.225 203.707
L146.333 203.648
L149.726 203.363
L152.56 203.164
L154.227 203.099
L156.227 203.066
L157.727 203.201
L158.249 203.199
L159.561 203.29
L160.228 203.474
L161.062 203.788
L161.728 204.302
L162.228 204.944
L163.062 206.296
L163.562 207.592
L164.229 209.627
L164.666 209.774
L165.896 206.243
L166.563 204.925
L167.415 203.764
L168.332 203.117
L169.73 202.533
L171.23 202.243
L172.064 202.22
L173.231 202.036
L175.065 201.829
L178.872 201.524
L187.578 201.382
L188.067 201.512
L188.953 201.199
L190.901 201.092
L192.402 200.528
L194.569 199.84
L195.826 199.413
L197.903 198.757
L199.236 198.531
L199.736 198.412
L200.737 198.13
L204.404 197.217
L206.738 197.211
L208.738 197.198
L209.572 197.2
L210.739 197.223
L211.572 197.136
L212.573 197.076
L214.151 196.926
L218.407 196.702
L220.908 196.706
L224.242 196.781
L226.242 195.687
L230.91 193.708
L234.911 194.58
L236.244 194.89
L237.911 195.167
L238.912 195.174
L244.579 195.152
L246.747 195.74
L247.413 196.073
L248.58 196.995
L249.416 198.101
L250.081 199.377
L251.247 202.215
L251.248 202.215
L251.748 201.487
L252.621 199.333
L253.581 197.869
L254.582 196.901
L255.415 196.446
L257.749 195.844
L259.583 195.448
L264.25 194.676
L268.918 197.215
L271.085 198.473
L275.419 196.833
L276.42 196.633
L279.087 196.368
L284.755 196.5
L287.922 195.926
L291.089 195.507
L296.757 195.317
L299.302 195.348
L302.092 195.582
L302.759 195.664
L304.592 195.59
L305.426 195.663
L306.926 195.711
L308.26 195.77
L311.761 195.847
L314.261 195.389
L315.595 195.132
L317.929 194.81
L320.596 194.921
L322.93 194.947
L324.597 194.944
L326.93 194.806
L327.764 194.739
L329.026 194.656
L330.931 194.446
L331.769 191.645
L332.765 189.222
L333.765 187.355
L334.932 185.634
L336.433 183.821
L337.599 182.635
L337.933 175.691
L338.433 170.556
L339.1 166.556
L339.767 163.868
L340.6 161.416
L341.6 159.204
L342.767 157.181
L344.101 155.34
L344.268 155.138
L344.934 152.182
L345.768 149.546
L346.768 147.184
L347.602 145.623
L348.366 142.712
L349.102 140.637
L349.435 139.644
L350.269 137.204
L354.103 127.973
L355.437 125.668
L356.103 124.784
L358.104 122.781
L359.938 120.173
L361.105 118.503
L362.438 117.097
L363.772 115.956
L364.939 115.16
L368.773 113.06
L371.107 112.089
L373.107 111.666
L374.774 111.432
L378.942 110.224
L379.942 109.983
L383.109 109.525
L385.11 109.4
L388.61 109.044
L390.944 109.218
L393.111 109.425
L395.445 109.116
L399.279 108.536
L404.28 108.714
L406.614 108.507
L408.115 108.345
L413.782 108.416
L417.617 108.232
L422.284 108.483
L427.119 108.482
L431.286 108.769
L434.12 108.548
L436.121 108.402
L440.009 108.769
L441.455 108.9
L444.622 108.707
L446.79 108.462
L449.79 108.455
L452.958 108.633
L457.959 108.887
L459.959 109.176
L461.793 109.13
L465.46 108.666
L466.794 108.607
L469.628 108.702
L471.628 108.915
L477.129 108.782
L480.463 108.797
L483.131 108.888
L485.798 108.795
L488.299 108.89
L489.966 109.094
L493.133 109.704
L494.8 109.789
L496.634 109.535
L498.134 109.297
L499.968 109.155
L501.468 109.024
L503.802 109.193
L504.969 109.202
L507.803 109.135
L512.614 109.456
L514.471 109.609
L518.638 109.585
L520.972 109.434
L523.973 109.877
L525.807 110.317
L526.807 110.478
L529.641 110.805
L530.808 111.028
L532.308 111.44
L533.216 112.105
L534.642 113.531
L535.475 113.736
L536.809 112.314
L537.809 111.438
L539.143 110.725
L539.976 110.523
L542.477 110.131
L543.477 110.078
L547.811 110.105
L550.145 110.324
L553.979 110.25
L556.146 110.239
L561.481 110.707
L567.315 110.557
L568.482 110.584
L575.151 110.858
L576.651 110.896
L579.151 111.085
L582.152 111.326
L583.652 111.359
L587.653 111.414
L595.655 111.737
L597.655 111.759
L600.989 112.107
L605.324 112.974
L606.657 113.44
L607.824 114.03
L609.325 115.474
L610.491 117.242
L617.16 128.871
L618.326 131.657
L619.16 134.247
L619.66 135.729
L620.494 138.336
L621.494 141.737
L622.161 143.932
L622.994 146.87
L623.828 149.337
L624.661 151.947
L625.581 154.225
L626.328 156.065
L627.328 158.063
L627.829 159.04
L629.162 160.81
L630.34 162.771
L631.163 164.252
L632.83 165.927
L634.33 167.771
L635.497 169.516
L636.497 171.357
L637.497 173.706
L637.831 174.317
L639.498 175.956
L640.998 177.746
L642.165 179.447
L643.332 181.562
L644.499 183.99
L647.499 185.598
L650 187.191
L652.5 189.063
L654.334 190.71
L655.835 192.326
L657.168 194.057
L657.835 194.906
L660.169 196.486
L662.169 198.085
L663.836 199.682
L664.336 200.223
L671.171 199.281
L677.839 200.555
L680.673 202.164
L683.007 203.726
L684.507 204.73
L691.342 203.771
L697.844 204.144
L700.344 205.626
L702.511 207.158
L704.512 208.692
L711.18 208.821
L714.219 207.475
L717.348 206.329
L717.681 206.216
L721.682 207.812
L725.683 209.675
L728.517 211.184
L731.184 212.665
L734.018 211.446
L735.852 210.859
L740.186 209.778
L744.354 209.247
L746.687 210.773
L749.021 212.575
L750.688 214.125
L751.188 214.513
L756.523 215.94
L757.856 216.235
L763.358 214.963
L765.025 214.739
L771.526 214.568
L774.527 215.162
L774.527 215.162" style="fill:none;stroke:#ff0000;stroke-dasharray:6.000000,6.000000;stroke-dashoffset:0.0;"/>
   </g>
   <g id="patch_3">
    <path d="
M107.55 89.64
L774.36 89.64" style="fill:none;stroke:#000000;stroke-linecap:square;stroke-linejoin:miter;"/>
   </g>
   <g id="patch_4">
    <path d="
M774.36 806.76
L774.36 89.64" style="fill:none;stroke:#000000;stroke-linecap:square;stroke-linejoin:miter;"/>
   </g>
   <g id="patch_5">
    <path d="
M107.55 806.76
L774.36 806.76" style="fill:none;stroke:#000000;stroke-linecap:square;stroke-linejoin:miter;"/>
   </g>
   <g id="patch_6">
    <path d="
M107.55 806.76
L107.55 89.64" style="fill:none;stroke:#000000;stroke-linecap:square;stroke-linejoin:miter;"/>
   </g>
   <g id="matplotlib.axis_1">
    <g id="xtick_1">
     <g id="line2d_3">
      <defs>
       <path d="
M0 0
L0 -4" id="m93b0483c22" style="stroke:#000000;stroke-width:0.5;"/>
      </defs>
      <g>
       <use style="stroke:#000000;stroke-width:0.5;" x="107.55" xlink:href="#m93b0483c22" y="806.76"/>
      </g>
     </g>
     <g id="line2d_4">
      <defs>
       <path d="
M0 0
L0 4" id="m741efc42ff" style="stroke:#000000;stroke-width:0.5;"/>
      </defs>
      <g>
       <use style="stroke:#000000;stroke-width:0.5;" x="107.55" xlink:href="#m741efc42ff" y="89.64"/>
      </g>
     </g>
     <g id="text_1">
      <!-- 4000 -->
      <defs>
       <path d="
M31.7812 66.4062
Q24.1719 66.4062 20.3281 58.9062
Q16.5 51.4219 16.5 36.375
Q16.5 21.3906 20.3281 13.8906
Q24.1719 6.39062 31.7812 6.39062
Q39.4531 6.39062 43.2812 13.8906
Q47.125 21.3906 47.125 36.375
Q47.125 51.4219 43.2812 58.9062
Q39.4531 66.4062 31.7812 66.4062
M31.7812 74.2188
Q44.0469 74.2188 50.5156 64.5156
Q56.9844 54.8281 56.9844 36.375
Q56.9844 17.9688 50.5156 8.26562
Q44.0469 -1.42188 31.7812 -1.42188
Q19.5312 -1.42188 13.0625 8.26562
Q6.59375 17.9688 6.59375 36.375
Q6.59375 54.8281 13.0625 64.5156
Q19.5312 74.2188 31.7812 74.2188" id="BitstreamVeraSans-Roman-30"/>
       <path d="
M37.7969 64.3125
L12.8906 25.3906
L37.7969 25.3906
z

M35.2031 72.9062
L47.6094 72.9062
L47.6094 25.3906
L58.0156 25.3906
L58.0156 17.1875
L47.6094 17.1875
L47.6094 0
L37.7969 0
L37.7969 17.1875
L4.89062 17.1875
L4.89062 26.7031
z
" id="BitstreamVeraSans-Roman-34"/>
      </defs>
      <g transform="translate(92.971875 819.878125)scale(0.12 -0.12)">
       <use xlink:href="#BitstreamVeraSans-Roman-34"/>
       <use x="63.623046875" xlink:href="#BitstreamVeraSans-Roman-30"/>
       <use x="127.24609375" xlink:href="#BitstreamVeraSans-Roman-30"/>
       <use x="190.869140625" xlink:href="#BitstreamVeraSans-Roman-30"/>
      </g>
     </g>
    </g>
    <g id="xtick_2">
     <g id="line2d_5">
      <g>
       <use style="stroke:#000000;stroke-width:0.5;" x="190.90125" xlink:href="#m93b0483c22" y="806.76"/>
      </g>
     </g>
     <g id="line2d_6">
      <g>
       <use style="stroke:#000000;stroke-width:0.5;" x="190.90125" xlink:href="#m741efc42ff" y="89.64"/>
      </g>
     </g>
     <g id="text_2">
      <!-- 4500 -->
      <defs>
       <path d="
M10.7969 72.9062
L49.5156 72.9062
L49.5156 64.5938
L19.8281 64.5938
L19.8281 46.7344
Q21.9688 47.4688 24.1094 47.8281
Q26.2656 48.1875 28.4219 48.1875
Q40.625 48.1875 47.75 41.5
Q54.8906 34.8125 54.8906 23.3906
Q54.8906 11.625 47.5625 5.09375
Q40.2344 -1.42188 26.9062 -1.42188
Q22.3125 -1.42188 17.5469 -0.640625
Q12.7969 0.140625 7.71875 1.70312
L7.71875 11.625
Q12.1094 9.23438 16.7969 8.0625
Q21.4844 6.89062 26.7031 6.89062
Q35.1562 6.89062 40.0781 11.3281
Q45.0156 15.7656 45.0156 23.3906
Q45.0156 31 40.0781 35.4375
Q35.1562 39.8906 26.7031 39.8906
Q22.75 39.8906 18.8125 39.0156
Q14.8906 38.1406 10.7969 36.2812
z
" id="BitstreamVeraSans-Roman-35"/>
      </defs>
      <g transform="translate(176.323125 819.878125)scale(0.12 -0.12)">
       <use xlink:href="#BitstreamVeraSans-Roman-34"/>
       <use x="63.623046875" xlink:href="#BitstreamVeraSans-Roman-35"/>
       <use x="127.24609375" xlink:href="#BitstreamVeraSans-Roman-30"/>
       <use x="190.869140625" xlink:href="#BitstreamVeraSans-Roman-30"/>
      </g>
     </g>
    </g>
    <g id="xtick_3">
     <g id="line2d_7">
      <g>
       <use style="stroke:#000000;stroke-width:0.5;" x="274.2525" xlink:href="#m93b0483c22" y="806.76"/>
      </g>
     </g>
     <g id="line2d_8">
      <g>
       <use style="stroke:#000000;stroke-width:0.5;" x="274.2525" xlink:href="#m741efc42ff" y="89.64"/>
      </g>
     </g>
     <g id="text_3">
      <!-- 5000 -->
      <g transform="translate(259.8440625 819.878125)scale(0.12 -0.12)">
       <use xlink:href="#BitstreamVeraSans-Roman-35"/>
       <use x="63.623046875" xlink:href="#BitstreamVeraSans-Roman-30"/>
       <use x="127.24609375" xlink:href="#BitstreamVeraSans-Roman-30"/>
       <use x="190.869140625" xlink:href="#BitstreamVeraSans-Roman-30"/>
      </g>
     </g>
    </g>
    <g id="xtick_4">
     <g id="line2d_9">
      <g>
       <use style="stroke:#000000;stroke-width:0.5;" x="357.60375" xlink:href="#m93b0483c22" y="806.76"/>
      </g>
     </g>
     <g id="line2d_10">
      <g>
       <use style="stroke:#000000;stroke-width:0.5;" x="357.60375" xlink:href="#m741efc42ff" y="89.64"/>
      </g>
     </g>
     <g id="text_4">
      <!-- 5500 -->
      <g transform="translate(343.1953125 819.878125)scale(0.12 -0.12)">
       <use xlink:href="#BitstreamVeraSans-Roman-35"/>
       <use x="63.623046875" xlink:href="#BitstreamVeraSans-Roman-35"/>
       <use x="127.24609375" xlink:href="#BitstreamVeraSans-Roman-30"/>
       <use x="190.869140625" xlink:href="#BitstreamVeraSans-Roman-30"/>
      </g>
     </g>
    </g>
    <g id="xtick_5">
     <g id="line2d_11">
      <g>
       <use style="stroke:#000000;stroke-width:0.5;" x="440.955" xlink:href="#m93b0483c22" y="806.76"/>
      </g>
     </g>
     <g id="line2d_12">
      <g>
       <use style="stroke:#000000;stroke-width:0.5;" x="440.955" xlink:href="#m741efc42ff" y="89.64"/>
      </g>
     </g>
     <g id="text_5">
      <!-- 6000 -->
      <defs>
       <path d="
M33.0156 40.375
Q26.375 40.375 22.4844 35.8281
Q18.6094 31.2969 18.6094 23.3906
Q18.6094 15.5312 22.4844 10.9531
Q26.375 6.39062 33.0156 6.39062
Q39.6562 6.39062 43.5312 10.9531
Q47.4062 15.5312 47.4062 23.3906
Q47.4062 31.2969 43.5312 35.8281
Q39.6562 40.375 33.0156 40.375
M52.5938 71.2969
L52.5938 62.3125
Q48.875 64.0625 45.0938 64.9844
Q41.3125 65.9219 37.5938 65.9219
Q27.8281 65.9219 22.6719 59.3281
Q17.5312 52.7344 16.7969 39.4062
Q19.6719 43.6562 24.0156 45.9219
Q28.375 48.1875 33.5938 48.1875
Q44.5781 48.1875 50.9531 41.5156
Q57.3281 34.8594 57.3281 23.3906
Q57.3281 12.1562 50.6875 5.35938
Q44.0469 -1.42188 33.0156 -1.42188
Q20.3594 -1.42188 13.6719 8.26562
Q6.98438 17.9688 6.98438 36.375
Q6.98438 53.6562 15.1875 63.9375
Q23.3906 74.2188 37.2031 74.2188
Q40.9219 74.2188 44.7031 73.4844
Q48.4844 72.75 52.5938 71.2969" id="BitstreamVeraSans-Roman-36"/>
      </defs>
      <g transform="translate(426.5025 819.878125)scale(0.12 -0.12)">
       <use xlink:href="#BitstreamVeraSans-Roman-36"/>
       <use x="63.623046875" xlink:href="#BitstreamVeraSans-Roman-30"/>
       <use x="127.24609375" xlink:href="#BitstreamVeraSans-Roman-30"/>
       <use x="190.869140625" xlink:href="#BitstreamVeraSans-Roman-30"/>
      </g>
     </g>
    </g>
    <g id="xtick_6">
     <g id="line2d_13">
      <g>
       <use style="stroke:#000000;stroke-width:0.5;" x="524.30625" xlink:href="#m93b0483c22" y="806.76"/>
      </g>
     </g>
     <g id="line2d_14">
      <g>
       <use style="stroke:#000000;stroke-width:0.5;" x="524.30625" xlink:href="#m741efc42ff" y="89.64"/>
      </g>
     </g>
     <g id="text_6">
      <!-- 6500 -->
      <g transform="translate(509.85375 819.878125)scale(0.12 -0.12)">
       <use xlink:href="#BitstreamVeraSans-Roman-36"/>
       <use x="63.623046875" xlink:href="#BitstreamVeraSans-Roman-35"/>
       <use x="127.24609375" xlink:href="#BitstreamVeraSans-Roman-30"/>
       <use x="190.869140625" xlink:href="#BitstreamVeraSans-Roman-30"/>
      </g>
     </g>
    </g>
    <g id="xtick_7">
     <g id="line2d_15">
      <g>
       <use style="stroke:#000000;stroke-width:0.5;" x="607.6575" xlink:href="#m93b0483c22" y="806.76"/>
      </g>
     </g>
     <g id="line2d_16">
      <g>
       <use style="stroke:#000000;stroke-width:0.5;" x="607.6575" xlink:href="#m741efc42ff" y="89.64"/>
      </g>
     </g>
     <g id="text_7">
      <!-- 7000 -->
      <defs>
       <path d="
M8.20312 72.9062
L55.0781 72.9062
L55.0781 68.7031
L28.6094 0
L18.3125 0
L43.2188 64.5938
L8.20312 64.5938
z
" id="BitstreamVeraSans-Roman-37"/>
      </defs>
      <g transform="translate(593.278125 819.878125)scale(0.12 -0.12)">
       <use xlink:href="#BitstreamVeraSans-Roman-37"/>
       <use x="63.623046875" xlink:href="#BitstreamVeraSans-Roman-30"/>
       <use x="127.24609375" xlink:href="#BitstreamVeraSans-Roman-30"/>
       <use x="190.869140625" xlink:href="#BitstreamVeraSans-Roman-30"/>
      </g>
     </g>
    </g>
    <g id="xtick_8">
     <g id="line2d_17">
      <g>
       <use style="stroke:#000000;stroke-width:0.5;" x="691.00875" xlink:href="#m93b0483c22" y="806.76"/>
      </g>
     </g>
     <g id="line2d_18">
      <g>
       <use style="stroke:#000000;stroke-width:0.5;" x="691.00875" xlink:href="#m741efc42ff" y="89.64"/>
      </g>
     </g>
     <g id="text_8">
      <!-- 7500 -->
      <g transform="translate(676.629375 819.878125)scale(0.12 -0.12)">
       <use xlink:href="#BitstreamVeraSans-Roman-37"/>
       <use x="63.623046875" xlink:href="#BitstreamVeraSans-Roman-35"/>
       <use x="127.24609375" xlink:href="#BitstreamVeraSans-Roman-30"/>
       <use x="190.869140625" xlink:href="#BitstreamVeraSans-Roman-30"/>
      </g>
     </g>
    </g>
    <g id="xtick_9">
     <g id="line2d_19">
      <g>
       <use style="stroke:#000000;stroke-width:0.5;" x="774.36" xlink:href="#m93b0483c22" y="806.76"/>
      </g>
     </g>
     <g id="line2d_20">
      <g>
       <use style="stroke:#000000;stroke-width:0.5;" x="774.36" xlink:href="#m741efc42ff" y="89.64"/>
      </g>
     </g>
     <g id="text_9">
      <!-- 8000 -->
      <defs>
       <path d="
M31.7812 34.625
Q24.75 34.625 20.7188 30.8594
Q16.7031 27.0938 16.7031 20.5156
Q16.7031 13.9219 20.7188 10.1562
Q24.75 6.39062 31.7812 6.39062
Q38.8125 6.39062 42.8594 10.1719
Q46.9219 13.9688 46.9219 20.5156
Q46.9219 27.0938 42.8906 30.8594
Q38.875 34.625 31.7812 34.625
M21.9219 38.8125
Q15.5781 40.375 12.0312 44.7188
Q8.5 49.0781 8.5 55.3281
Q8.5 64.0625 14.7188 69.1406
Q20.9531 74.2188 31.7812 74.2188
Q42.6719 74.2188 48.875 69.1406
Q55.0781 64.0625 55.0781 55.3281
Q55.0781 49.0781 51.5312 44.7188
Q48 40.375 41.7031 38.8125
Q48.8281 37.1562 52.7969 32.3125
Q56.7812 27.4844 56.7812 20.5156
Q56.7812 9.90625 50.3125 4.23438
Q43.8438 -1.42188 31.7812 -1.42188
Q19.7344 -1.42188 13.25 4.23438
Q6.78125 9.90625 6.78125 20.5156
Q6.78125 27.4844 10.7812 32.3125
Q14.7969 37.1562 21.9219 38.8125
M18.3125 54.3906
Q18.3125 48.7344 21.8438 45.5625
Q25.3906 42.3906 31.7812 42.3906
Q38.1406 42.3906 41.7188 45.5625
Q45.3125 48.7344 45.3125 54.3906
Q45.3125 60.0625 41.7188 63.2344
Q38.1406 66.4062 31.7812 66.4062
Q25.3906 66.4062 21.8438 63.2344
Q18.3125 60.0625 18.3125 54.3906" id="BitstreamVeraSans-Roman-38"/>
      </defs>
      <g transform="translate(759.8953125 819.878125)scale(0.12 -0.12)">
       <use xlink:href="#BitstreamVeraSans-Roman-38"/>
       <use x="63.623046875" xlink:href="#BitstreamVeraSans-Roman-30"/>
       <use x="127.24609375" xlink:href="#BitstreamVeraSans-Roman-30"/>
       <use x="190.869140625" xlink:href="#BitstreamVeraSans-Roman-30"/>
      </g>
     </g>
    </g>
   </g>
   <g id="matplotlib.axis_2">
    <g id="ytick_1">
     <g id="line2d_21">
      <defs>
       <path d="
M0 0
L4 0" id="m728421d6d4" style="stroke:#000000;stroke-width:0.5;"/>
      </defs>
      <g>
       <use style="stroke:#000000;stroke-width:0.5;" x="107.55" xlink:href="#m728421d6d4" y="806.76"/>
      </g>
     </g>
     <g id="line2d_22">
      <defs>
       <path d="
M0 0
L-4 0" id="mcb0005524f" style="stroke:#000000;stroke-width:0.5;"/>
      </defs>
      <g>
       <use style="stroke:#000000;stroke-width:0.5;" x="774.36" xlink:href="#mcb0005524f" y="806.76"/>
      </g>
     </g>
     <g id="text_10">
      <!-- $\mathdefault{10^{-45}}$ -->
      <defs>
       <path d="
M12.4062 8.29688
L28.5156 8.29688
L28.5156 63.9219
L10.9844 60.4062
L10.9844 69.3906
L28.4219 72.9062
L38.2812 72.9062
L38.2812 8.29688
L54.3906 8.29688
L54.3906 0
L12.4062 0
z
" id="BitstreamVeraSans-Roman-31"/>
       <path d="
M4.89062 31.3906
L31.2031 31.3906
L31.2031 23.3906
L4.89062 23.3906
z
" id="BitstreamVeraSans-Roman-2d"/>
      </defs>
      <g transform="translate(71.99 810.624375)scale(0.12 -0.12)">
       <use transform="translate(0.0 0.465625)" xlink:href="#BitstreamVeraSans-Roman-31"/>
       <use transform="translate(63.623046875 0.465625)" xlink:href="#BitstreamVeraSans-Roman-30"/>
       <use transform="translate(127.24609375 52.965625)scale(0.7)" xlink:href="#BitstreamVeraSans-Roman-2d"/>
       <use transform="translate(152.504882812 52.965625)scale(0.7)" xlink:href="#BitstreamVeraSans-Roman-34"/>
       <use transform="translate(197.041015625 52.965625)scale(0.7)" xlink:href="#BitstreamVeraSans-Roman-35"/>
      </g>
     </g>
    </g>
    <g id="ytick_2">
     <g id="line2d_23">
      <g>
       <use style="stroke:#000000;stroke-width:0.5;" x="107.55" xlink:href="#m728421d6d4" y="748.615135135"/>
      </g>
     </g>
     <g id="line2d_24">
      <g>
       <use style="stroke:#000000;stroke-width:0.5;" x="774.36" xlink:href="#mcb0005524f" y="748.615135135"/>
      </g>
     </g>
     <g id="text_11">
      <!-- $\mathdefault{10^{-42}}$ -->
      <defs>
       <path d="
M19.1875 8.29688
L53.6094 8.29688
L53.6094 0
L7.32812 0
L7.32812 8.29688
Q12.9375 14.1094 22.625 23.8906
Q32.3281 33.6875 34.8125 36.5312
Q39.5469 41.8438 41.4219 45.5312
Q43.3125 49.2188 43.3125 52.7812
Q43.3125 58.5938 39.2344 62.25
Q35.1562 65.9219 28.6094 65.9219
Q23.9688 65.9219 18.8125 64.3125
Q13.6719 62.7031 7.8125 59.4219
L7.8125 69.3906
Q13.7656 71.7812 18.9375 73
Q24.125 74.2188 28.4219 74.2188
Q39.75 74.2188 46.4844 68.5469
Q53.2188 62.8906 53.2188 53.4219
Q53.2188 48.9219 51.5312 44.8906
Q49.8594 40.875 45.4062 35.4062
Q44.1875 33.9844 37.6406 27.2188
Q31.1094 20.4531 19.1875 8.29688" id="BitstreamVeraSans-Roman-32"/>
      </defs>
      <g transform="translate(71.99 752.539510135)scale(0.12 -0.12)">
       <use transform="translate(0.0 0.546875)" xlink:href="#BitstreamVeraSans-Roman-31"/>
       <use transform="translate(63.623046875 0.546875)" xlink:href="#BitstreamVeraSans-Roman-30"/>
       <use transform="translate(127.24609375 53.046875)scale(0.7)" xlink:href="#BitstreamVeraSans-Roman-2d"/>
       <use transform="translate(152.504882812 53.046875)scale(0.7)" xlink:href="#BitstreamVeraSans-Roman-34"/>
       <use transform="translate(197.041015625 53.046875)scale(0.7)" xlink:href="#BitstreamVeraSans-Roman-32"/>
      </g>
     </g>
    </g>
    <g id="ytick_3">
     <g id="line2d_25">
      <g>
       <use style="stroke:#000000;stroke-width:0.5;" x="107.55" xlink:href="#m728421d6d4" y="690.47027027"/>
      </g>
     </g>
     <g id="line2d_26">
      <g>
       <use style="stroke:#000000;stroke-width:0.5;" x="774.36" xlink:href="#mcb0005524f" y="690.47027027"/>
      </g>
     </g>
     <g id="text_12">
      <!-- $\mathdefault{10^{-39}}$ -->
      <defs>
       <path d="
M40.5781 39.3125
Q47.6562 37.7969 51.625 33
Q55.6094 28.2188 55.6094 21.1875
Q55.6094 10.4062 48.1875 4.48438
Q40.7656 -1.42188 27.0938 -1.42188
Q22.5156 -1.42188 17.6562 -0.515625
Q12.7969 0.390625 7.625 2.20312
L7.625 11.7188
Q11.7188 9.32812 16.5938 8.10938
Q21.4844 6.89062 26.8125 6.89062
Q36.0781 6.89062 40.9375 10.5469
Q45.7969 14.2031 45.7969 21.1875
Q45.7969 27.6406 41.2812 31.2656
Q36.7656 34.9062 28.7188 34.9062
L20.2188 34.9062
L20.2188 43.0156
L29.1094 43.0156
Q36.375 43.0156 40.2344 45.9219
Q44.0938 48.8281 44.0938 54.2969
Q44.0938 59.9062 40.1094 62.9062
Q36.1406 65.9219 28.7188 65.9219
Q24.6562 65.9219 20.0156 65.0312
Q15.375 64.1562 9.8125 62.3125
L9.8125 71.0938
Q15.4375 72.6562 20.3438 73.4375
Q25.25 74.2188 29.5938 74.2188
Q40.8281 74.2188 47.3594 69.1094
Q53.9062 64.0156 53.9062 55.3281
Q53.9062 49.2656 50.4375 45.0938
Q46.9688 40.9219 40.5781 39.3125" id="BitstreamVeraSans-Roman-33"/>
       <path d="
M10.9844 1.51562
L10.9844 10.5
Q14.7031 8.73438 18.5 7.8125
Q22.3125 6.89062 25.9844 6.89062
Q35.75 6.89062 40.8906 13.4531
Q46.0469 20.0156 46.7812 33.4062
Q43.9531 29.2031 39.5938 26.9531
Q35.25 24.7031 29.9844 24.7031
Q19.0469 24.7031 12.6719 31.3125
Q6.29688 37.9375 6.29688 49.4219
Q6.29688 60.6406 12.9375 67.4219
Q19.5781 74.2188 30.6094 74.2188
Q43.2656 74.2188 49.9219 64.5156
Q56.5938 54.8281 56.5938 36.375
Q56.5938 19.1406 48.4062 8.85938
Q40.2344 -1.42188 26.4219 -1.42188
Q22.7031 -1.42188 18.8906 -0.6875
Q15.0938 0.046875 10.9844 1.51562
M30.6094 32.4219
Q37.25 32.4219 41.125 36.9531
Q45.0156 41.5 45.0156 49.4219
Q45.0156 57.2812 41.125 61.8438
Q37.25 66.4062 30.6094 66.4062
Q23.9688 66.4062 20.0938 61.8438
Q16.2188 57.2812 16.2188 49.4219
Q16.2188 41.5 20.0938 36.9531
Q23.9688 32.4219 30.6094 32.4219" id="BitstreamVeraSans-Roman-39"/>
      </defs>
      <g transform="translate(71.99 694.39464527)scale(0.12 -0.12)">
       <use transform="translate(0.0 0.546875)" xlink:href="#BitstreamVeraSans-Roman-31"/>
       <use transform="translate(63.623046875 0.546875)" xlink:href="#BitstreamVeraSans-Roman-30"/>
       <use transform="translate(127.24609375 53.046875)scale(0.7)" xlink:href="#BitstreamVeraSans-Roman-2d"/>
       <use transform="translate(152.504882812 53.046875)scale(0.7)" xlink:href="#BitstreamVeraSans-Roman-33"/>
       <use transform="translate(197.041015625 53.046875)scale(0.7)" xlink:href="#BitstreamVeraSans-Roman-39"/>
      </g>
     </g>
    </g>
    <g id="ytick_4">
     <g id="line2d_27">
      <g>
       <use style="stroke:#000000;stroke-width:0.5;" x="107.55" xlink:href="#m728421d6d4" y="632.325405405"/>
      </g>
     </g>
     <g id="line2d_28">
      <g>
       <use style="stroke:#000000;stroke-width:0.5;" x="774.36" xlink:href="#mcb0005524f" y="632.325405405"/>
      </g>
     </g>
     <g id="text_13">
      <!-- $\mathdefault{10^{-36}}$ -->
      <g transform="translate(71.99 636.249780405)scale(0.12 -0.12)">
       <use transform="translate(0.0 0.546875)" xlink:href="#BitstreamVeraSans-Roman-31"/>
       <use transform="translate(63.623046875 0.546875)" xlink:href="#BitstreamVeraSans-Roman-30"/>
       <use transform="translate(127.24609375 53.046875)scale(0.7)" xlink:href="#BitstreamVeraSans-Roman-2d"/>
       <use transform="translate(152.504882812 53.046875)scale(0.7)" xlink:href="#BitstreamVeraSans-Roman-33"/>
       <use transform="translate(197.041015625 53.046875)scale(0.7)" xlink:href="#BitstreamVeraSans-Roman-36"/>
      </g>
     </g>
    </g>
    <g id="ytick_5">
     <g id="line2d_29">
      <g>
       <use style="stroke:#000000;stroke-width:0.5;" x="107.55" xlink:href="#m728421d6d4" y="574.180540541"/>
      </g>
     </g>
     <g id="line2d_30">
      <g>
       <use style="stroke:#000000;stroke-width:0.5;" x="774.36" xlink:href="#mcb0005524f" y="574.180540541"/>
      </g>
     </g>
     <g id="text_14">
      <!-- $\mathdefault{10^{-33}}$ -->
      <g transform="translate(71.99 578.104915541)scale(0.12 -0.12)">
       <use transform="translate(0.0 0.546875)" xlink:href="#BitstreamVeraSans-Roman-31"/>
       <use transform="translate(63.623046875 0.546875)" xlink:href="#BitstreamVeraSans-Roman-30"/>
       <use transform="translate(127.24609375 53.046875)scale(0.7)" xlink:href="#BitstreamVeraSans-Roman-2d"/>
       <use transform="translate(152.504882812 53.046875)scale(0.7)" xlink:href="#BitstreamVeraSans-Roman-33"/>
       <use transform="translate(197.041015625 53.046875)scale(0.7)" xlink:href="#BitstreamVeraSans-Roman-33"/>
      </g>
     </g>
    </g>
    <g id="ytick_6">
     <g id="line2d_31">
      <g>
       <use style="stroke:#000000;stroke-width:0.5;" x="107.55" xlink:href="#m728421d6d4" y="516.035675676"/>
      </g>
     </g>
     <g id="line2d_32">
      <g>
       <use style="stroke:#000000;stroke-width:0.5;" x="774.36" xlink:href="#mcb0005524f" y="516.035675676"/>
      </g>
     </g>
     <g id="text_15">
      <!-- $\mathdefault{10^{-30}}$ -->
      <g transform="translate(71.99 519.960050676)scale(0.12 -0.12)">
       <use transform="translate(0.0 0.546875)" xlink:href="#BitstreamVeraSans-Roman-31"/>
       <use transform="translate(63.623046875 0.546875)" xlink:href="#BitstreamVeraSans-Roman-30"/>
       <use transform="translate(127.24609375 53.046875)scale(0.7)" xlink:href="#BitstreamVeraSans-Roman-2d"/>
       <use transform="translate(152.504882812 53.046875)scale(0.7)" xlink:href="#BitstreamVeraSans-Roman-33"/>
       <use transform="translate(197.041015625 53.046875)scale(0.7)" xlink:href="#BitstreamVeraSans-Roman-30"/>
      </g>
     </g>
    </g>
    <g id="ytick_7">
     <g id="line2d_33">
      <g>
       <use style="stroke:#000000;stroke-width:0.5;" x="107.55" xlink:href="#m728421d6d4" y="457.890810811"/>
      </g>
     </g>
     <g id="line2d_34">
      <g>
       <use style="stroke:#000000;stroke-width:0.5;" x="774.36" xlink:href="#mcb0005524f" y="457.890810811"/>
      </g>
     </g>
     <g id="text_16">
      <!-- $\mathdefault{10^{-27}}$ -->
      <g transform="translate(71.99 461.815185811)scale(0.12 -0.12)">
       <use transform="translate(0.0 0.546875)" xlink:href="#BitstreamVeraSans-Roman-31"/>
       <use transform="translate(63.623046875 0.546875)" xlink:href="#BitstreamVeraSans-Roman-30"/>
       <use transform="translate(127.24609375 53.046875)scale(0.7)" xlink:href="#BitstreamVeraSans-Roman-2d"/>
       <use transform="translate(152.504882812 53.046875)scale(0.7)" xlink:href="#BitstreamVeraSans-Roman-32"/>
       <use transform="translate(197.041015625 53.046875)scale(0.7)" xlink:href="#BitstreamVeraSans-Roman-37"/>
      </g>
     </g>
    </g>
    <g id="ytick_8">
     <g id="line2d_35">
      <g>
       <use style="stroke:#000000;stroke-width:0.5;" x="107.55" xlink:href="#m728421d6d4" y="399.745945946"/>
      </g>
     </g>
     <g id="line2d_36">
      <g>
       <use style="stroke:#000000;stroke-width:0.5;" x="774.36" xlink:href="#mcb0005524f" y="399.745945946"/>
      </g>
     </g>
     <g id="text_17">
      <!-- $\mathdefault{10^{-24}}$ -->
      <g transform="translate(71.99 403.670320946)scale(0.12 -0.12)">
       <use transform="translate(0.0 0.546875)" xlink:href="#BitstreamVeraSans-Roman-31"/>
       <use transform="translate(63.623046875 0.546875)" xlink:href="#BitstreamVeraSans-Roman-30"/>
       <use transform="translate(127.24609375 53.046875)scale(0.7)" xlink:href="#BitstreamVeraSans-Roman-2d"/>
       <use transform="translate(152.504882812 53.046875)scale(0.7)" xlink:href="#BitstreamVeraSans-Roman-32"/>
       <use transform="translate(197.041015625 53.046875)scale(0.7)" xlink:href="#BitstreamVeraSans-Roman-34"/>
      </g>
     </g>
    </g>
    <g id="ytick_9">
     <g id="line2d_37">
      <g>
       <use style="stroke:#000000;stroke-width:0.5;" x="107.55" xlink:href="#m728421d6d4" y="341.601081081"/>
      </g>
     </g>
     <g id="line2d_38">
      <g>
       <use style="stroke:#000000;stroke-width:0.5;" x="774.36" xlink:href="#mcb0005524f" y="341.601081081"/>
      </g>
     </g>
     <g id="text_18">
      <!-- $\mathdefault{10^{-21}}$ -->
      <g transform="translate(71.99 345.525456081)scale(0.12 -0.12)">
       <use transform="translate(0.0 0.546875)" xlink:href="#BitstreamVeraSans-Roman-31"/>
       <use transform="translate(63.623046875 0.546875)" xlink:href="#BitstreamVeraSans-Roman-30"/>
       <use transform="translate(127.24609375 53.046875)scale(0.7)" xlink:href="#BitstreamVeraSans-Roman-2d"/>
       <use transform="translate(152.504882812 53.046875)scale(0.7)" xlink:href="#BitstreamVeraSans-Roman-32"/>
       <use transform="translate(197.041015625 53.046875)scale(0.7)" xlink:href="#BitstreamVeraSans-Roman-31"/>
      </g>
     </g>
    </g>
    <g id="ytick_10">
     <g id="line2d_39">
      <g>
       <use style="stroke:#000000;stroke-width:0.5;" x="107.55" xlink:href="#m728421d6d4" y="283.456216216"/>
      </g>
     </g>
     <g id="line2d_40">
      <g>
       <use style="stroke:#000000;stroke-width:0.5;" x="774.36" xlink:href="#mcb0005524f" y="283.456216216"/>
      </g>
     </g>
     <g id="text_19">
      <!-- $\mathdefault{10^{-18}}$ -->
      <g transform="translate(71.99 287.380591216)scale(0.12 -0.12)">
       <use transform="translate(0.0 0.546875)" xlink:href="#BitstreamVeraSans-Roman-31"/>
       <use transform="translate(63.623046875 0.546875)" xlink:href="#BitstreamVeraSans-Roman-30"/>
       <use transform="translate(127.24609375 53.046875)scale(0.7)" xlink:href="#BitstreamVeraSans-Roman-2d"/>
       <use transform="translate(152.504882812 53.046875)scale(0.7)" xlink:href="#BitstreamVeraSans-Roman-31"/>
       <use transform="translate(197.041015625 53.046875)scale(0.7)" xlink:href="#BitstreamVeraSans-Roman-38"/>
      </g>
     </g>
    </g>
    <g id="ytick_11">
     <g id="line2d_41">
      <g>
       <use style="stroke:#000000;stroke-width:0.5;" x="107.55" xlink:href="#m728421d6d4" y="225.311351351"/>
      </g>
     </g>
     <g id="line2d_42">
      <g>
       <use style="stroke:#000000;stroke-width:0.5;" x="774.36" xlink:href="#mcb0005524f" y="225.311351351"/>
      </g>
     </g>
     <g id="text_20">
      <!-- $\mathdefault{10^{-15}}$ -->
      <g transform="translate(71.99 229.175726351)scale(0.12 -0.12)">
       <use transform="translate(0.0 0.465625)" xlink:href="#BitstreamVeraSans-Roman-31"/>
       <use transform="translate(63.623046875 0.465625)" xlink:href="#BitstreamVeraSans-Roman-30"/>
       <use transform="translate(127.24609375 52.965625)scale(0.7)" xlink:href="#BitstreamVeraSans-Roman-2d"/>
       <use transform="translate(152.504882812 52.965625)scale(0.7)" xlink:href="#BitstreamVeraSans-Roman-31"/>
       <use transform="translate(197.041015625 52.965625)scale(0.7)" xlink:href="#BitstreamVeraSans-Roman-35"/>
      </g>
     </g>
    </g>
    <g id="ytick_12">
     <g id="line2d_43">
      <g>
       <use style="stroke:#000000;stroke-width:0.5;" x="107.55" xlink:href="#m728421d6d4" y="167.166486486"/>
      </g>
     </g>
     <g id="line2d_44">
      <g>
       <use style="stroke:#000000;stroke-width:0.5;" x="774.36" xlink:href="#mcb0005524f" y="167.166486486"/>
      </g>
     </g>
     <g id="text_21">
      <!-- $\mathdefault{10^{-12}}$ -->
      <g transform="translate(71.99 171.090861486)scale(0.12 -0.12)">
       <use transform="translate(0.0 0.546875)" xlink:href="#BitstreamVeraSans-Roman-31"/>
       <use transform="translate(63.623046875 0.546875)" xlink:href="#BitstreamVeraSans-Roman-30"/>
       <use transform="translate(127.24609375 53.046875)scale(0.7)" xlink:href="#BitstreamVeraSans-Roman-2d"/>
       <use transform="translate(152.504882812 53.046875)scale(0.7)" xlink:href="#BitstreamVeraSans-Roman-31"/>
       <use transform="translate(197.041015625 53.046875)scale(0.7)" xlink:href="#BitstreamVeraSans-Roman-32"/>
      </g>
     </g>
    </g>
    <g id="ytick_13">
     <g id="line2d_45">
      <g>
       <use style="stroke:#000000;stroke-width:0.5;" x="107.55" xlink:href="#m728421d6d4" y="109.021621622"/>
      </g>
     </g>
     <g id="line2d_46">
      <g>
       <use style="stroke:#000000;stroke-width:0.5;" x="774.36" xlink:href="#mcb0005524f" y="109.021621622"/>
      </g>
     </g>
     <g id="text_22">
      <!-- $\mathdefault{10^{-9}}$ -->
      <g transform="translate(77.27 112.945996622)scale(0.12 -0.12)">
       <use transform="translate(0.0 0.546875)" xlink:href="#BitstreamVeraSans-Roman-31"/>
       <use transform="translate(63.623046875 0.546875)" xlink:href="#BitstreamVeraSans-Roman-30"/>
       <use transform="translate(127.24609375 53.046875)scale(0.7)" xlink:href="#BitstreamVeraSans-Roman-2d"/>
       <use transform="translate(152.504882812 53.046875)scale(0.7)" xlink:href="#BitstreamVeraSans-Roman-39"/>
      </g>
     </g>
    </g>
    <g id="ytick_14">
     <g id="line2d_47">
      <defs>
       <path d="
M0 0
L2 0" id="mf0c55a9a47" style="stroke:#000000;stroke-width:0.5;"/>
      </defs>
      <g>
       <use style="stroke:#000000;stroke-width:0.5;" x="107.55" xlink:href="#mf0c55a9a47" y="806.76"/>
      </g>
     </g>
     <g id="line2d_48">
      <defs>
       <path d="
M0 0
L-2 0" id="ma4f294b3af" style="stroke:#000000;stroke-width:0.5;"/>
      </defs>
      <g>
       <use style="stroke:#000000;stroke-width:0.5;" x="774.36" xlink:href="#ma4f294b3af" y="806.76"/>
      </g>
     </g>
    </g>
    <g id="ytick_15">
     <g id="line2d_49">
      <g>
       <use style="stroke:#000000;stroke-width:0.5;" x="107.55" xlink:href="#mf0c55a9a47" y="748.615135135"/>
      </g>
     </g>
     <g id="line2d_50">
      <g>
       <use style="stroke:#000000;stroke-width:0.5;" x="774.36" xlink:href="#ma4f294b3af" y="748.615135135"/>
      </g>
     </g>
    </g>
    <g id="ytick_16">
     <g id="line2d_51">
      <g>
       <use style="stroke:#000000;stroke-width:0.5;" x="107.55" xlink:href="#mf0c55a9a47" y="690.47027027"/>
      </g>
     </g>
     <g id="line2d_52">
      <g>
       <use style="stroke:#000000;stroke-width:0.5;" x="774.36" xlink:href="#ma4f294b3af" y="690.47027027"/>
      </g>
     </g>
    </g>
    <g id="ytick_17">
     <g id="line2d_53">
      <g>
       <use style="stroke:#000000;stroke-width:0.5;" x="107.55" xlink:href="#mf0c55a9a47" y="632.325405405"/>
      </g>
     </g>
     <g id="line2d_54">
      <g>
       <use style="stroke:#000000;stroke-width:0.5;" x="774.36" xlink:href="#ma4f294b3af" y="632.325405405"/>
      </g>
     </g>
    </g>
    <g id="ytick_18">
     <g id="line2d_55">
      <g>
       <use style="stroke:#000000;stroke-width:0.5;" x="107.55" xlink:href="#mf0c55a9a47" y="574.180540541"/>
      </g>
     </g>
     <g id="line2d_56">
      <g>
       <use style="stroke:#000000;stroke-width:0.5;" x="774.36" xlink:href="#ma4f294b3af" y="574.180540541"/>
      </g>
     </g>
    </g>
    <g id="ytick_19">
     <g id="line2d_57">
      <g>
       <use style="stroke:#000000;stroke-width:0.5;" x="107.55" xlink:href="#mf0c55a9a47" y="516.035675676"/>
      </g>
     </g>
     <g id="line2d_58">
      <g>
       <use style="stroke:#000000;stroke-width:0.5;" x="774.36" xlink:href="#ma4f294b3af" y="516.035675676"/>
      </g>
     </g>
    </g>
    <g id="ytick_20">
     <g id="line2d_59">
      <g>
       <use style="stroke:#000000;stroke-width:0.5;" x="107.55" xlink:href="#mf0c55a9a47" y="457.890810811"/>
      </g>
     </g>
     <g id="line2d_60">
      <g>
       <use style="stroke:#000000;stroke-width:0.5;" x="774.36" xlink:href="#ma4f294b3af" y="457.890810811"/>
      </g>
     </g>
    </g>
    <g id="ytick_21">
     <g id="line2d_61">
      <g>
       <use style="stroke:#000000;stroke-width:0.5;" x="107.55" xlink:href="#mf0c55a9a47" y="399.745945946"/>
      </g>
     </g>
     <g id="line2d_62">
      <g>
       <use style="stroke:#000000;stroke-width:0.5;" x="774.36" xlink:href="#ma4f294b3af" y="399.745945946"/>
      </g>
     </g>
    </g>
    <g id="ytick_22">
     <g id="line2d_63">
      <g>
       <use style="stroke:#000000;stroke-width:0.5;" x="107.55" xlink:href="#mf0c55a9a47" y="341.601081081"/>
      </g>
     </g>
     <g id="line2d_64">
      <g>
       <use style="stroke:#000000;stroke-width:0.5;" x="774.36" xlink:href="#ma4f294b3af" y="341.601081081"/>
      </g>
     </g>
    </g>
    <g id="ytick_23">
     <g id="line2d_65">
      <g>
       <use style="stroke:#000000;stroke-width:0.5;" x="107.55" xlink:href="#mf0c55a9a47" y="283.456216216"/>
      </g>
     </g>
     <g id="line2d_66">
      <g>
       <use style="stroke:#000000;stroke-width:0.5;" x="774.36" xlink:href="#ma4f294b3af" y="283.456216216"/>
      </g>
     </g>
    </g>
    <g id="ytick_24">
     <g id="line2d_67">
      <g>
       <use style="stroke:#000000;stroke-width:0.5;" x="107.55" xlink:href="#mf0c55a9a47" y="225.311351351"/>
      </g>
     </g>
     <g id="line2d_68">
      <g>
       <use style="stroke:#000000;stroke-width:0.5;" x="774.36" xlink:href="#ma4f294b3af" y="225.311351351"/>
      </g>
     </g>
    </g>
    <g id="ytick_25">
     <g id="line2d_69">
      <g>
       <use style="stroke:#000000;stroke-width:0.5;" x="107.55" xlink:href="#mf0c55a9a47" y="167.166486486"/>
      </g>
     </g>
     <g id="line2d_70">
      <g>
       <use style="stroke:#000000;stroke-width:0.5;" x="774.36" xlink:href="#ma4f294b3af" y="167.166486486"/>
      </g>
     </g>
    </g>
    <g id="ytick_26">
     <g id="line2d_71">
      <g>
       <use style="stroke:#000000;stroke-width:0.5;" x="107.55" xlink:href="#mf0c55a9a47" y="109.021621622"/>
      </g>
     </g>
     <g id="line2d_72">
      <g>
       <use style="stroke:#000000;stroke-width:0.5;" x="774.36" xlink:href="#ma4f294b3af" y="109.021621622"/>
      </g>
     </g>
    </g>
   </g>
  </g>
 </g>
 <defs>
  <clipPath id="p6b89b7f788">
   <rect height="717.12" width="666.81" x="107.55" y="89.64"/>
  </clipPath>
 </defs>
</svg>
